[Header]
FileType HTR
DataType HTRS
FileVersion 1
NumSegments 22
NumFrames 8
DataFrameRate 24
EulerRotationOrder ZYX
CalibrationUnits mm
RotationUnits Degrees
GlobalAxisofGravity Y
BoneLengthAxis Y
ScaleFactor 1.0
[SegmentNames&Hierarchy]
reference	GLOBAL
Hips	reference
Spine	Hips
Spine1	Spine
Neck	Spine1
Head	Neck
LeftShoulder	Spine1
LeftArm	LeftShoulder
LeftForeArm	LeftArm
LeftHand	LeftForeArm
RightShoulder	Spine1
RightArm	RightShoulder
RightForeArm	RightArm
RightHand	RightForeArm
LeftUpLeg	Hips
LeftLeg	LeftUpLeg
LeftFoot	LeftLeg
LeftToeBase	LeftFoot
RightUpLeg	Hips
RightLeg	RightUpLeg
RightFoot	RightLeg
RightToeBase	RightFoot
[BasePosition]
reference	0	0	0	0	0	0	1
Hips	0	0	0	0	0	0	1
Spine	0	0	0	0	-0	90	1
Spine1	0	0	0	0	0	0	1
Neck	0	0	0	-7.352430803	-7.352430803	90	1
Head	0	0	0	0	-0	90	1
LeftShoulder	0	0	0	0	0	0	1
LeftArm	0	0	0	0	0	0	1
LeftForeArm	0	0	0	0	0	0	1
LeftHand	0	0	0	0	0	0	1
RightShoulder	0	0	0	0	-0	180	1
RightArm	0	0	0	0	-0	180	1
RightForeArm	0	0	0	0	-0	180	1
RightHand	0	0	0	0	-0	180	1
LeftUpLeg	0	0	0	0	-0	-90	1
LeftLeg	0	0	0	0	-0	-90	1
LeftFoot	0	0	0	66.57150701	-66.57150701	-90	1
LeftToeBase	0	0	0	0	-90	0	1
RightUpLeg	0	0	0	0	-0	-90	1
RightLeg	0	0	0	0	-0	-90	1
RightFoot	0	0	0	66.57150701	-66.57150701	-90	1
RightToeBase	0	0	0	0	-90	0	1
[reference]
46	0	0	0	0	-0	0	1.0
47	0	0	0	0	-0	0	1.0
48	0	0	0	0	-0	0	1.0
49	0	0	0	0	-0	0	1.0
50	0	0	0	0	-0	0	1.0
51	0	0	0	0	-0	0	1.0
52	0	0	0	0	-0	0	1.0
53	0	0	0	0	-0	0	1.0
[Hips]
46	0.1416383386	8.687635422	0.7218759656	-15.50608063	-108.4225998	15.47152328	1.0
47	-0.04130222648	8.69129467	0.6918190718	-11.0979166	-104.5746918	12.68937302	1.0
48	-0.2446342707	8.673527718	0.6459286809	-8.193065643	-102.4338303	10.93010998	1.0
49	-0.4851199985	8.64774704	0.5829399824	-7.573196411	-99.64324188	9.356552124	1.0
50	-0.6869260073	8.627959251	0.5478823185	-1.809682965	-95.89115143	3.396282673	1.0
51	-0.7454969883	8.626367569	0.5136573911	-20.21938896	-97.51422119	23.60250854	1.0
52	-0.8109611869	8.639552116	0.4760199487	-20.75641251	-99.62622833	23.86589813	1.0
53	-0.882787168	8.659294128	0.4316748679	-18.69146919	-99.57025146	20.91107368	1.0
[Spine]
46	0	0.7478299737	0	-0.4195018709	0.06231956556	-88.82196808	1.0
47	0	0.7478299737	0	-3.426245689	-0.1047847867	-90.05319214	1.0
48	0	0.7478299737	0	-5.993643284	1.082570195	-90.47351074	1.0
49	0	0.7478299737	0	-7.238791943	1.362541914	-91.18647003	1.0
50	0	0.7478299737	0	-8.685581207	1.113859534	-91.23670959	1.0
51	0	0.7478299737	0	-10.59813309	3.132129192	-88.29797363	1.0
52	0	0.7478299737	0	-10.35154915	4.00051403	-88.82902527	1.0
53	0	0.7478299737	0	-9.507492065	3.018726826	-89.87813568	1.0
[Spine1]
46	0	2.049309969	0	6.681333542	-0.02571705729	0.5468969345	1.0
47	0	2.049309969	0	4.547690868	-0.01153995376	-0.932217896	1.0
48	0	2.049309969	0	3.402746677	0.4279774725	-2.156538963	1.0
49	0	2.049309969	0	3.67470026	0.5638673902	-2.639613867	1.0
50	0	2.049309969	0	3.237123728	0.4499575496	-3.779909849	1.0
51	0	2.049309969	0	5.487928867	1.250495434	-4.77200079	1.0
52	0	2.049309969	0	4.786353111	1.384011507	-1.814033628	1.0
53	0	2.049309969	0	3.874718666	1.038287759	-1.045465708	1.0
[Neck]
46	0	2.231709957	0	0.5951426029	13.4562912	-84.84321594	1.0
47	0	2.231709957	0	2.785736084	11.997612	-84.34812927	1.0
48	0	2.231709957	0	3.849529028	10.62260532	-84.04785156	1.0
49	0	2.231709957	0	3.872920752	9.600585938	-84.20872498	1.0
50	0	2.231709957	0	4.89498806	8.644824982	-84.32530212	1.0
51	0	2.231709957	0	2.053714752	8.013758659	-82.64006805	1.0
52	0	2.231709957	0	2.71049571	8.166999817	-85.02766418	1.0
53	0	2.231709957	0	4.743827343	8.205713272	-84.71443176	1.0
[Head]
46	0	1.413589954	0.1823999882	-3.600674152	6.823001385	-92.12953186	1.0
47	0	1.413589954	0.1823999882	-4.018724442	5.313310146	-90.6985321	1.0
48	0	1.413589954	0.1823999882	-4.409413338	4.00846529	-90.98261261	1.0
49	0	1.413589954	0.1823999882	-3.456751108	3.022659779	-91.54205322	1.0
50	0	1.413589954	0.1823999882	-4.169890404	2.195898056	-92.96252441	1.0
51	0	1.413589954	0.1823999882	-3.118113756	1.976020575	-96.67313385	1.0
52	0	1.413589954	0.1823999882	-4.72890377	1.624547243	-93.92765045	1.0
53	0	1.413589954	0.1823999882	-6.23187542	1.724265695	-93.99768066	1.0
[LeftShoulder]
46	0.3649300039	1.825889945	-0.04271000251	-14.64504051	-9.637929916	4.650140762	1.0
47	0.3649300039	1.825889945	-0.04271000251	-13.30569839	-9.430216789	6.163295269	1.0
48	0.3649300039	1.825889945	-0.04271000251	-13.74120426	-9.363657951	7.830755711	1.0
49	0.3649300039	1.825889945	-0.04271000251	-12.91387749	-9.353963852	8.569712639	1.0
50	0.3649300039	1.825889945	-0.04271000251	-13.84838581	-9.027261734	9.038288116	1.0
51	0.3649300039	1.825889945	-0.04271000251	-14.0280838	-7.689100742	9.203999519	1.0
52	0.3649300039	1.825889945	-0.04271000251	-10.96947575	-6.85884428	7.814948082	1.0
53	0.3649300039	1.825889945	-0.04271000251	-9.489126205	-5.965405464	7.035992146	1.0
[LeftArm]
46	1.24003005	0	0	42.17073059	-19.09225464	-70.91573334	1.0
47	1.24003005	0	0	42.34371567	-21.85211945	-68.6505661	1.0
48	1.24003005	0	0	41.6904068	-21.8750267	-66.95129395	1.0
49	1.24003005	0	0	38.3849144	-21.40037537	-64.29908752	1.0
50	1.24003005	0	0	37.47011566	-18.65862083	-62.6856041	1.0
51	1.24003005	0	0	35.70676041	-15.20868587	-63.67785263	1.0
52	1.24003005	0	0	32.26458359	-9.820999146	-65.81554413	1.0
53	1.24003005	0	0	28.97820282	-3.054591894	-67.2039032	1.0
[LeftForeArm]
46	2.847419977	0	0	-31.54343796	-37.9574585	25.04554367	1.0
47	2.847419977	0	0	-38.72833633	-43.71073151	36.99007416	1.0
48	2.847419977	0	0	-47.60558319	-48.7052803	50.39648056	1.0
49	2.847419977	0	0	-57.49713135	-54.10919571	63.56803894	1.0
50	2.847419977	0	0	-64.77750397	-57.22311783	73.27211761	1.0
51	2.847419977	0	0	-71.89472198	-58.91669083	82.87003326	1.0
52	2.847419977	0	0	-75.93028259	-60.03295135	87.09055328	1.0
53	2.847419977	0	0	-72.72416687	-62.78810883	82.55941772	1.0
[LeftHand]
46	2.258270025	0	0	-23.23734283	-12.08270931	4.068861485	1.0
47	2.258270025	0	0	-23.86394119	-11.79988003	4.043472767	1.0
48	2.258270025	0	0	-23.99024773	-11.44356728	4.264917374	1.0
49	2.258270025	0	0	-22.85116386	-11.09616756	4.873259544	1.0
50	2.258270025	0	0	-21.20442772	-10.85629082	6.141578197	1.0
51	2.258270025	0	0	-19.55655479	-11.20772457	6.691651344	1.0
52	2.258270025	0	0	-19.00488663	-10.78113556	6.536292076	1.0
53	2.258270025	0	0	-16.98478317	-11.47812843	6.1302948	1.0
[RightShoulder]
46	-0.3646599948	1.825889945	-0.04271000251	-13.15155602	13.54962254	175.5240021	1.0
47	-0.3646599948	1.825889945	-0.04271000251	-12.96385098	12.46750641	174.9927826	1.0
48	-0.3646599948	1.825889945	-0.04271000251	-12.89282322	11.16995239	174.5630798	1.0
49	-0.3646599948	1.825889945	-0.04271000251	-11.95834923	9.972206116	174.3077698	1.0
50	-0.3646599948	1.825889945	-0.04271000251	-12.01768684	8.265648842	174.1857147	1.0
51	-0.3646599948	1.825889945	-0.04271000251	-11.64295578	7.847545624	174.4664154	1.0
52	-0.3646599948	1.825889945	-0.04271000251	-10.06305695	8.332008362	174.5712128	1.0
53	-0.3646599948	1.825889945	-0.04271000251	-8.961100578	7.673649788	176.2971954	1.0
[RightArm]
46	-1.24003005	0	0	37.92681122	17.95175552	-112.2095184	1.0
47	-1.24003005	0	0	33.96979523	17.74206543	-114.5046082	1.0
48	-1.24003005	0	0	31.18074417	16.68935013	-116.0348053	1.0
49	-1.24003005	0	0	29.02221298	15.5612278	-116.7888794	1.0
50	-1.24003005	0	0	27.66592407	13.18406296	-116.2625885	1.0
51	-1.24003005	0	0	26.34986687	10.09745979	-114.7653885	1.0
52	-1.24003005	0	0	24.57525253	7.077733994	-113.2492447	1.0
53	-1.24003005	0	0	24.30319786	4.814866066	-112.1914368	1.0
[RightForeArm]
46	-2.847419977	0	0	-13.89690971	30.95114517	156.4592133	1.0
47	-2.847419977	0	0	-18.97002411	35.91856766	147.6017761	1.0
48	-2.847419977	0	0	-25.7141304	39.55793381	136.0321503	1.0
49	-2.847419977	0	0	-33.69969559	42.13145065	122.9550171	1.0
50	-2.847419977	0	0	-40.76925659	44.34283447	111.6926422	1.0
51	-2.847419977	0	0	-47.04718018	45.41677856	101.6158676	1.0
52	-2.847419977	0	0	-50.91176605	49.61855316	98.96639252	1.0
53	-2.847419977	0	0	-49.69233322	54.92164612	104.3851395	1.0
[RightHand]
46	-2.258270025	0	0	-8.579206467	15.61587811	170.6329651	1.0
47	-2.258270025	0	0	-9.581293106	14.8587141	169.4869385	1.0
48	-2.258270025	0	0	-10.51646805	13.54733181	168.932785	1.0
49	-2.258270025	0	0	-11.18523979	12.31502056	169.563385	1.0
50	-2.258270025	0	0	-11.00028419	11.00380325	168.4079742	1.0
51	-2.258270025	0	0	-10.55448341	11.76248074	168.3547363	1.0
52	-2.258270025	0	0	-8.91078186	10.76921558	168.2585144	1.0
53	-2.258270025	0	0	-6.950340271	11.85064316	168.7380219	1.0
[LeftUpLeg]
46	0.9119900465	0	0	-7.218049049	16.17573166	92.53265381	1.0
47	0.9119900465	0	0	-6.514493465	13.94111443	90.44203186	1.0
48	0.9119900465	0	0	-4.875421047	15.21215439	89.49957275	1.0
49	0.9119900465	0	0	-1.223867774	13.90807247	89.88294983	1.0
50	0.9119900465	0	0	0.5770007372	11.74188042	88.88580322	1.0
51	0.9119900465	0	0	0.2532097399	8.282361984	89.945755	1.0
52	0.9119900465	0	0	2.449958801	5.065084457	91.55133057	1.0
53	0.9119900465	0	0	3.760721207	6.958353996	91.64818573	1.0
[LeftLeg]
46	0	-4.371409893	0	16.62545204	-7.004839897	82.59809113	1.0
47	0	-4.371409893	0	13.26447964	-7.836162567	82.87358856	1.0
48	0	-4.371409893	0	10.28771877	-8.928427696	83.2250824	1.0
49	0	-4.371409893	0	7.963530064	-9.464974403	82.72821045	1.0
50	0	-4.371409893	0	6.580575943	-11.28124523	83.78743744	1.0
51	0	-4.371409893	0	4.138988018	-7.063734055	86.44352722	1.0
52	0	-4.371409893	0	1.598026156	0.000275593251	86.19718933	1.0
53	0	-4.371409893	0	2.028900623	-5.318240166	86.17893219	1.0
[LeftFoot]
46	0	-3.918009996	0	-107.0874023	115.355896	-57.05856705	1.0
47	0	-3.918009996	0	-107.5783081	115.3339691	-57.33843231	1.0
48	0	-3.918009996	0	-111.3203201	114.9842072	-60.29239273	1.0
49	0	-3.918009996	0	-112.0203476	113.8463287	-60.60541534	1.0
50	0	-3.918009996	0	-113.2163239	113.8131638	-61.22144318	1.0
51	0	-3.918009996	0	-112.1687927	112.6644592	-61.69417572	1.0
52	0	-3.918009996	0	-115.3332901	111.8421783	-68.87718201	1.0
53	0	-3.918009996	0	-108.5301132	111.2768936	-61.4085083	1.0
[LeftToeBase]
46	0	-0.5927900076	1.367989898	0	0	0	1.0
47	0	-0.5927900076	1.367989898	0	0	0	1.0
48	0	-0.5927900076	1.367989898	0	0	0	1.0
49	0	-0.5927900076	1.367989898	0	0	0	1.0
50	0	-0.5927900076	1.367989898	0	0	0	1.0
51	0	-0.5927900076	1.367989898	0	0	0	1.0
52	0	-0.5927900076	1.367989898	0	0	0	1.0
53	0	-0.5927900076	1.367989898	0	0	0	1.0
[RightUpLeg]
46	-0.9119900465	0	0	-65.67260742	1.163302064	113.527771	1.0
47	-0.9119900465	0	0	-51.07556152	-7.431592941	110.3903351	1.0
48	-0.9119900465	0	0	-32.25679016	-10.96804428	104.1971512	1.0
49	-0.9119900465	0	0	-11.62449074	-10.77239609	96.19055176	1.0
50	-0.9119900465	0	0	1.650785208	-8.111875534	91.07260132	1.0
51	-0.9119900465	0	0	2.86195612	-10.93061161	92.73234558	1.0
52	-0.9119900465	0	0	3.353036404	-12.38359642	92.49850464	1.0
53	-0.9119900465	0	0	3.229975462	-10.32153988	91.87008667	1.0
[RightLeg]
46	0	-4.371409893	0	100.5317078	19.99881554	70.28184509	1.0
47	0	-4.371409893	0	77.89039612	15.55311489	63.14149475	1.0
48	0	-4.371409893	0	49.3401413	1.988565922	63.03307343	1.0
49	0	-4.371409893	0	21.47751999	-5.43507719	77.24817657	1.0
50	0	-4.371409893	0	1.09406662	-9.389143944	88.46391296	1.0
51	0	-4.371409893	0	-4.451058388	-11.95619774	91.552742	1.0
52	0	-4.371409893	0	-3.41024971	-6.795576096	91.88713837	1.0
53	0	-4.371409893	0	-0.6394410133	-4.928203583	91.5359726	1.0
[RightFoot]
46	0	-3.918009996	0	54.07415771	68.9565506	84.99336243	1.0
47	0	-3.918009996	0	64.15985107	67.3091507	94.44779968	1.0
48	0	-3.918009996	0	78.14515686	67.19309998	110.6085739	1.0
49	0	-3.918009996	0	55.09309769	60.06430817	100.8684464	1.0
50	0	-3.918009996	0	35.63179779	63.51970291	80.2780838	1.0
51	0	-3.918009996	0	54.33764648	65.03235626	92.8271637	1.0
52	0	-3.918009996	0	61.53709412	63.36531067	96.27431488	1.0
53	0	-3.918009996	0	54.22537613	62.82248306	90.71231079	1.0
[RightToeBase]
46	0	-0.5927900076	1.367989898	0	0	0	1.0
47	0	-0.5927900076	1.367989898	0	0	0	1.0
48	0	-0.5927900076	1.367989898	0	0	0	1.0
49	0	-0.5927900076	1.367989898	0	0	0	1.0
50	0	-0.5927900076	1.367989898	0	0	0	1.0
51	0	-0.5927900076	1.367989898	0	0	0	1.0
52	0	-0.5927900076	1.367989898	0	0	0	1.0
53	0	-0.5927900076	1.367989898	0	0	0	1.0
[EndOfFile]
